<svg width="278" height="50" viewBox="0 0 278 50" fill="none" xmlns="http://www.w3.org/2000/svg">
<path d="M61.3422 38.1025L69.9302 11.5025H78.0242L86.5742 38.1025H81.1402L74.0342 14.8465H73.9202L66.7002 38.1025H61.3422ZM65.6362 30.6545L67.0042 26.6645H80.5322L81.8622 30.6545H65.6362ZM88.6161 38.1025V11.3885H93.7461V38.1025H88.6161ZM98.5899 29.2485V24.9545H114.626V29.2485H98.5899ZM136.176 38.1025V11.5025H141.306V38.1025H136.176ZM119.418 38.1025V11.5025H124.548V38.1025H119.418ZM123.826 26.5885V22.4465H137.05V26.5885H123.826ZM150.953 38.5585C149.433 38.5585 148.179 38.3052 147.191 37.7985C146.228 37.2919 145.519 36.6079 145.063 35.7465C144.607 34.8852 144.379 33.9352 144.379 32.8965C144.379 31.7312 144.67 30.7052 145.253 29.8185C145.861 28.9319 146.76 28.2479 147.951 27.7665C149.167 27.2599 150.7 27.0065 152.549 27.0065H157.299C157.299 26.0692 157.16 25.2965 156.881 24.6885C156.628 24.0805 156.222 23.6372 155.665 23.3585C155.133 23.0545 154.449 22.9025 153.613 22.9025C152.65 22.9025 151.814 23.1179 151.105 23.5485C150.396 23.9792 149.965 24.6632 149.813 25.6005H144.835C144.962 24.2072 145.405 23.0039 146.165 21.9905C146.95 20.9772 147.976 20.1919 149.243 19.6345C150.535 19.0772 152.004 18.7985 153.651 18.7985C155.45 18.7985 157.008 19.1025 158.325 19.7105C159.642 20.2932 160.656 21.1672 161.365 22.3325C162.074 23.4725 162.429 24.8659 162.429 26.5125V38.1025H158.173L157.641 35.1765H157.489C157.134 35.7339 156.716 36.2279 156.235 36.6585C155.779 37.0892 155.272 37.4439 154.715 37.7225C154.183 38.0012 153.6 38.2039 152.967 38.3305C152.334 38.4825 151.662 38.5585 150.953 38.5585ZM152.587 34.6065C153.271 34.6065 153.879 34.4925 154.411 34.2645C154.943 34.0112 155.386 33.6819 155.741 33.2765C156.121 32.8712 156.425 32.4025 156.653 31.8705C156.881 31.3132 157.033 30.7432 157.109 30.1605H153.157C152.372 30.1605 151.726 30.2619 151.219 30.4645C150.712 30.6419 150.345 30.9079 150.117 31.2625C149.889 31.5919 149.775 31.9845 149.775 32.4405C149.775 32.8965 149.889 33.2892 150.117 33.6185C150.37 33.9479 150.7 34.2012 151.105 34.3785C151.536 34.5305 152.03 34.6065 152.587 34.6065ZM167.875 45.7785L172.245 35.9745H171.181L163.467 19.2545H169.015L174.487 31.4905H174.601L179.503 19.2545H184.975L173.347 45.7785H167.875ZM195.429 38.1025C194.086 38.1025 192.908 37.8999 191.895 37.4945C190.907 37.0639 190.134 36.3672 189.577 35.4045C189.02 34.4165 188.741 33.0739 188.741 31.3765V23.3965H185.511V19.2545H188.741L189.311 14.1245H193.871V19.2545H198.887V23.3965H193.871V31.4525C193.871 32.3392 194.061 32.9599 194.441 33.3145C194.821 33.6692 195.467 33.8465 196.379 33.8465H198.773V38.1025H195.429ZM201.057 38.1025V11.3885H206.111V22.3705H206.263C206.922 21.2052 207.783 20.3185 208.847 19.7105C209.911 19.1025 211.165 18.7985 212.609 18.7985C214.129 18.7985 215.421 19.1405 216.485 19.8245C217.549 20.4832 218.36 21.4585 218.917 22.7505C219.475 24.0425 219.753 25.6385 219.753 27.5385V38.1025H214.661V27.9945C214.661 26.4239 214.345 25.2205 213.711 24.3845C213.103 23.5485 212.115 23.1305 210.747 23.1305C209.886 23.1305 209.101 23.3459 208.391 23.7765C207.707 24.1819 207.163 24.7772 206.757 25.5625C206.377 26.3225 206.187 27.2599 206.187 28.3745V38.1025H201.057ZM229.031 38.5585C227.511 38.5585 226.257 38.3052 225.269 37.7985C224.306 37.2919 223.597 36.6079 223.141 35.7465C222.685 34.8852 222.457 33.9352 222.457 32.8965C222.457 31.7312 222.748 30.7052 223.331 29.8185C223.939 28.9319 224.838 28.2479 226.029 27.7665C227.245 27.2599 228.778 27.0065 230.627 27.0065H235.377C235.377 26.0692 235.238 25.2965 234.959 24.6885C234.706 24.0805 234.3 23.6372 233.743 23.3585C233.211 23.0545 232.527 22.9025 231.691 22.9025C230.728 22.9025 229.892 23.1179 229.183 23.5485C228.474 23.9792 228.043 24.6632 227.891 25.6005H222.913C223.04 24.2072 223.483 23.0039 224.243 21.9905C225.028 20.9772 226.054 20.1919 227.321 19.6345C228.613 19.0772 230.082 18.7985 231.729 18.7985C233.528 18.7985 235.086 19.1025 236.403 19.7105C237.72 20.2932 238.734 21.1672 239.443 22.3325C240.152 23.4725 240.507 24.8659 240.507 26.5125V38.1025H236.251L235.719 35.1765H235.567C235.212 35.7339 234.794 36.2279 234.313 36.6585C233.857 37.0892 233.35 37.4439 232.793 37.7225C232.261 38.0012 231.678 38.2039 231.045 38.3305C230.412 38.4825 229.74 38.5585 229.031 38.5585ZM230.665 34.6065C231.349 34.6065 231.957 34.4925 232.489 34.2645C233.021 34.0112 233.464 33.6819 233.819 33.2765C234.199 32.8712 234.503 32.4025 234.731 31.8705C234.959 31.3132 235.111 30.7432 235.187 30.1605H231.235C230.45 30.1605 229.804 30.2619 229.297 30.4645C228.79 30.6419 228.423 30.9079 228.195 31.2625C227.967 31.5919 227.853 31.9845 227.853 32.4405C227.853 32.8965 227.967 33.2892 228.195 33.6185C228.448 33.9479 228.778 34.2012 229.183 34.3785C229.614 34.5305 230.108 34.6065 230.665 34.6065ZM243.581 38.1025V19.2545H248.065L248.521 22.3325H248.635C249.218 21.1672 250.016 20.2932 251.029 19.7105C252.068 19.1025 253.271 18.7985 254.639 18.7985C255.602 18.7985 256.476 18.9252 257.261 19.1785C258.047 19.4319 258.743 19.8245 259.351 20.3565C259.959 20.8885 260.466 21.5979 260.871 22.4845H260.985C261.695 21.3192 262.581 20.4199 263.645 19.7865C264.735 19.1279 266.065 18.7985 267.635 18.7985C269.13 18.7985 270.409 19.1405 271.473 19.8245C272.537 20.4832 273.348 21.4585 273.905 22.7505C274.488 24.0425 274.779 25.6385 274.779 27.5385V38.1025H269.687V27.9945C269.687 26.4239 269.383 25.2205 268.775 24.3845C268.193 23.5485 267.243 23.1305 265.925 23.1305C265.089 23.1305 264.355 23.3205 263.721 23.7005C263.113 24.0552 262.632 24.5999 262.277 25.3345C261.923 26.0692 261.745 26.9685 261.745 28.0325V38.1025H256.653V27.9945C256.653 26.4239 256.349 25.2205 255.741 24.3845C255.133 23.5485 254.171 23.1305 252.853 23.1305C252.093 23.1305 251.397 23.3459 250.763 23.7765C250.13 24.1819 249.623 24.7772 249.243 25.5625C248.889 26.3225 248.711 27.2599 248.711 28.3745V38.1025H243.581Z" fill="#170F49"/>
<path d="M0.923828 21.0569C0.923828 9.63621 10.1821 0.37793 21.6028 0.37793V28.9434C21.6028 40.364 12.3445 49.6223 0.923828 49.6223V21.0569Z" fill="#4A3AFF"/>
<path d="M24.6025 11.6147C24.6025 5.40881 29.6334 0.37793 35.8393 0.37793C42.0452 0.37793 47.0761 5.4088 47.0761 11.6147V12.2635C47.0761 18.4694 42.0452 23.5002 35.8393 23.5002C29.6334 23.5002 24.6025 18.4694 24.6025 12.2635V11.6147Z" fill="#4CBFFF"/>
<path d="M24.6025 37.7368C24.6025 31.5309 29.6334 26.5 35.8393 26.5C42.0452 26.5 47.0761 31.5309 47.0761 37.7368V38.3855C47.0761 44.5914 42.0452 49.6223 35.8393 49.6223C29.6334 49.6223 24.6025 44.5914 24.6025 38.3855V37.7368Z" fill="#9E97FF"/>
</svg>
