<svg width="278" height="50" viewBox="0 0 278 50" fill="none" xmlns="http://www.w3.org/2000/svg">
<mask id="path-1-outside-1_1221_43385" maskUnits="userSpaceOnUse" x="59.0762" y="10.1025" width="217" height="37" fill="black">
<rect fill="white" x="59.0762" y="10.1025" width="217" height="37"/>
<path d="M61.3422 38.1025L69.9302 11.5025H78.0242L86.5742 38.1025H81.1402L74.0342 14.8465H73.9202L66.7002 38.1025H61.3422ZM65.6362 30.6545L67.0042 26.6645H80.5322L81.8622 30.6545H65.6362ZM88.6161 38.1025V11.3885H93.7461V38.1025H88.6161ZM98.5899 29.2485V24.9545H114.626V29.2485H98.5899ZM136.176 38.1025V11.5025H141.306V38.1025H136.176ZM119.418 38.1025V11.5025H124.548V38.1025H119.418ZM123.826 26.5885V22.4465H137.05V26.5885H123.826ZM150.953 38.5585C149.433 38.5585 148.179 38.3052 147.191 37.7985C146.228 37.2919 145.519 36.6079 145.063 35.7465C144.607 34.8852 144.379 33.9352 144.379 32.8965C144.379 31.7312 144.67 30.7052 145.253 29.8185C145.861 28.9319 146.76 28.2479 147.951 27.7665C149.167 27.2599 150.7 27.0065 152.549 27.0065H157.299C157.299 26.0692 157.16 25.2965 156.881 24.6885C156.628 24.0805 156.222 23.6372 155.665 23.3585C155.133 23.0545 154.449 22.9025 153.613 22.9025C152.65 22.9025 151.814 23.1179 151.105 23.5485C150.396 23.9792 149.965 24.6632 149.813 25.6005H144.835C144.962 24.2072 145.405 23.0039 146.165 21.9905C146.95 20.9772 147.976 20.1919 149.243 19.6345C150.535 19.0772 152.004 18.7985 153.651 18.7985C155.45 18.7985 157.008 19.1025 158.325 19.7105C159.642 20.2932 160.656 21.1672 161.365 22.3325C162.074 23.4725 162.429 24.8659 162.429 26.5125V38.1025H158.173L157.641 35.1765H157.489C157.134 35.7339 156.716 36.2279 156.235 36.6585C155.779 37.0892 155.272 37.4439 154.715 37.7225C154.183 38.0012 153.6 38.2039 152.967 38.3305C152.334 38.4825 151.662 38.5585 150.953 38.5585ZM152.587 34.6065C153.271 34.6065 153.879 34.4925 154.411 34.2645C154.943 34.0112 155.386 33.6819 155.741 33.2765C156.121 32.8712 156.425 32.4025 156.653 31.8705C156.881 31.3132 157.033 30.7432 157.109 30.1605H153.157C152.372 30.1605 151.726 30.2619 151.219 30.4645C150.712 30.6419 150.345 30.9079 150.117 31.2625C149.889 31.5919 149.775 31.9845 149.775 32.4405C149.775 32.8965 149.889 33.2892 150.117 33.6185C150.37 33.9479 150.7 34.2012 151.105 34.3785C151.536 34.5305 152.03 34.6065 152.587 34.6065ZM167.875 45.7785L172.245 35.9745H171.181L163.467 19.2545H169.015L174.487 31.4905H174.601L179.503 19.2545H184.975L173.347 45.7785H167.875ZM195.429 38.1025C194.086 38.1025 192.908 37.8999 191.895 37.4945C190.907 37.0639 190.134 36.3672 189.577 35.4045C189.02 34.4165 188.741 33.0739 188.741 31.3765V23.3965H185.511V19.2545H188.741L189.311 14.1245H193.871V19.2545H198.887V23.3965H193.871V31.4525C193.871 32.3392 194.061 32.9599 194.441 33.3145C194.821 33.6692 195.467 33.8465 196.379 33.8465H198.773V38.1025H195.429ZM201.057 38.1025V11.3885H206.111V22.3705H206.263C206.922 21.2052 207.783 20.3185 208.847 19.7105C209.911 19.1025 211.165 18.7985 212.609 18.7985C214.129 18.7985 215.421 19.1405 216.485 19.8245C217.549 20.4832 218.36 21.4585 218.917 22.7505C219.475 24.0425 219.753 25.6385 219.753 27.5385V38.1025H214.661V27.9945C214.661 26.4239 214.345 25.2205 213.711 24.3845C213.103 23.5485 212.115 23.1305 210.747 23.1305C209.886 23.1305 209.101 23.3459 208.391 23.7765C207.707 24.1819 207.163 24.7772 206.757 25.5625C206.377 26.3225 206.187 27.2599 206.187 28.3745V38.1025H201.057ZM229.031 38.5585C227.511 38.5585 226.257 38.3052 225.269 37.7985C224.306 37.2919 223.597 36.6079 223.141 35.7465C222.685 34.8852 222.457 33.9352 222.457 32.8965C222.457 31.7312 222.748 30.7052 223.331 29.8185C223.939 28.9319 224.838 28.2479 226.029 27.7665C227.245 27.2599 228.778 27.0065 230.627 27.0065H235.377C235.377 26.0692 235.238 25.2965 234.959 24.6885C234.706 24.0805 234.3 23.6372 233.743 23.3585C233.211 23.0545 232.527 22.9025 231.691 22.9025C230.728 22.9025 229.892 23.1179 229.183 23.5485C228.474 23.9792 228.043 24.6632 227.891 25.6005H222.913C223.04 24.2072 223.483 23.0039 224.243 21.9905C225.028 20.9772 226.054 20.1919 227.321 19.6345C228.613 19.0772 230.082 18.7985 231.729 18.7985C233.528 18.7985 235.086 19.1025 236.403 19.7105C237.72 20.2932 238.734 21.1672 239.443 22.3325C240.152 23.4725 240.507 24.8659 240.507 26.5125V38.1025H236.251L235.719 35.1765H235.567C235.212 35.7339 234.794 36.2279 234.313 36.6585C233.857 37.0892 233.35 37.4439 232.793 37.7225C232.261 38.0012 231.678 38.2039 231.045 38.3305C230.412 38.4825 229.74 38.5585 229.031 38.5585ZM230.665 34.6065C231.349 34.6065 231.957 34.4925 232.489 34.2645C233.021 34.0112 233.464 33.6819 233.819 33.2765C234.199 32.8712 234.503 32.4025 234.731 31.8705C234.959 31.3132 235.111 30.7432 235.187 30.1605H231.235C230.45 30.1605 229.804 30.2619 229.297 30.4645C228.79 30.6419 228.423 30.9079 228.195 31.2625C227.967 31.5919 227.853 31.9845 227.853 32.4405C227.853 32.8965 227.967 33.2892 228.195 33.6185C228.448 33.9479 228.778 34.2012 229.183 34.3785C229.614 34.5305 230.108 34.6065 230.665 34.6065ZM243.581 38.1025V19.2545H248.065L248.521 22.3325H248.635C249.218 21.1672 250.016 20.2932 251.029 19.7105C252.068 19.1025 253.271 18.7985 254.639 18.7985C255.602 18.7985 256.476 18.9252 257.261 19.1785C258.047 19.4319 258.743 19.8245 259.351 20.3565C259.959 20.8885 260.466 21.5979 260.871 22.4845H260.985C261.695 21.3192 262.581 20.4199 263.645 19.7865C264.735 19.1279 266.065 18.7985 267.635 18.7985C269.13 18.7985 270.409 19.1405 271.473 19.8245C272.537 20.4832 273.348 21.4585 273.905 22.7505C274.488 24.0425 274.779 25.6385 274.779 27.5385V38.1025H269.687V27.9945C269.687 26.4239 269.383 25.2205 268.775 24.3845C268.193 23.5485 267.243 23.1305 265.925 23.1305C265.089 23.1305 264.355 23.3205 263.721 23.7005C263.113 24.0552 262.632 24.5999 262.277 25.3345C261.923 26.0692 261.745 26.9685 261.745 28.0325V38.1025H256.653V27.9945C256.653 26.4239 256.349 25.2205 255.741 24.3845C255.133 23.5485 254.171 23.1305 252.853 23.1305C252.093 23.1305 251.397 23.3459 250.763 23.7765C250.13 24.1819 249.623 24.7772 249.243 25.5625C248.889 26.3225 248.711 27.2599 248.711 28.3745V38.1025H243.581Z"/>
</mask>
<path d="M61.3422 38.1025L69.9302 11.5025H78.0242L86.5742 38.1025H81.1402L74.0342 14.8465H73.9202L66.7002 38.1025H61.3422ZM65.6362 30.6545L67.0042 26.6645H80.5322L81.8622 30.6545H65.6362ZM88.6161 38.1025V11.3885H93.7461V38.1025H88.6161ZM98.5899 29.2485V24.9545H114.626V29.2485H98.5899ZM136.176 38.1025V11.5025H141.306V38.1025H136.176ZM119.418 38.1025V11.5025H124.548V38.1025H119.418ZM123.826 26.5885V22.4465H137.05V26.5885H123.826ZM150.953 38.5585C149.433 38.5585 148.179 38.3052 147.191 37.7985C146.228 37.2919 145.519 36.6079 145.063 35.7465C144.607 34.8852 144.379 33.9352 144.379 32.8965C144.379 31.7312 144.67 30.7052 145.253 29.8185C145.861 28.9319 146.76 28.2479 147.951 27.7665C149.167 27.2599 150.7 27.0065 152.549 27.0065H157.299C157.299 26.0692 157.16 25.2965 156.881 24.6885C156.628 24.0805 156.222 23.6372 155.665 23.3585C155.133 23.0545 154.449 22.9025 153.613 22.9025C152.65 22.9025 151.814 23.1179 151.105 23.5485C150.396 23.9792 149.965 24.6632 149.813 25.6005H144.835C144.962 24.2072 145.405 23.0039 146.165 21.9905C146.95 20.9772 147.976 20.1919 149.243 19.6345C150.535 19.0772 152.004 18.7985 153.651 18.7985C155.45 18.7985 157.008 19.1025 158.325 19.7105C159.642 20.2932 160.656 21.1672 161.365 22.3325C162.074 23.4725 162.429 24.8659 162.429 26.5125V38.1025H158.173L157.641 35.1765H157.489C157.134 35.7339 156.716 36.2279 156.235 36.6585C155.779 37.0892 155.272 37.4439 154.715 37.7225C154.183 38.0012 153.6 38.2039 152.967 38.3305C152.334 38.4825 151.662 38.5585 150.953 38.5585ZM152.587 34.6065C153.271 34.6065 153.879 34.4925 154.411 34.2645C154.943 34.0112 155.386 33.6819 155.741 33.2765C156.121 32.8712 156.425 32.4025 156.653 31.8705C156.881 31.3132 157.033 30.7432 157.109 30.1605H153.157C152.372 30.1605 151.726 30.2619 151.219 30.4645C150.712 30.6419 150.345 30.9079 150.117 31.2625C149.889 31.5919 149.775 31.9845 149.775 32.4405C149.775 32.8965 149.889 33.2892 150.117 33.6185C150.37 33.9479 150.7 34.2012 151.105 34.3785C151.536 34.5305 152.03 34.6065 152.587 34.6065ZM167.875 45.7785L172.245 35.9745H171.181L163.467 19.2545H169.015L174.487 31.4905H174.601L179.503 19.2545H184.975L173.347 45.7785H167.875ZM195.429 38.1025C194.086 38.1025 192.908 37.8999 191.895 37.4945C190.907 37.0639 190.134 36.3672 189.577 35.4045C189.02 34.4165 188.741 33.0739 188.741 31.3765V23.3965H185.511V19.2545H188.741L189.311 14.1245H193.871V19.2545H198.887V23.3965H193.871V31.4525C193.871 32.3392 194.061 32.9599 194.441 33.3145C194.821 33.6692 195.467 33.8465 196.379 33.8465H198.773V38.1025H195.429ZM201.057 38.1025V11.3885H206.111V22.3705H206.263C206.922 21.2052 207.783 20.3185 208.847 19.7105C209.911 19.1025 211.165 18.7985 212.609 18.7985C214.129 18.7985 215.421 19.1405 216.485 19.8245C217.549 20.4832 218.36 21.4585 218.917 22.7505C219.475 24.0425 219.753 25.6385 219.753 27.5385V38.1025H214.661V27.9945C214.661 26.4239 214.345 25.2205 213.711 24.3845C213.103 23.5485 212.115 23.1305 210.747 23.1305C209.886 23.1305 209.101 23.3459 208.391 23.7765C207.707 24.1819 207.163 24.7772 206.757 25.5625C206.377 26.3225 206.187 27.2599 206.187 28.3745V38.1025H201.057ZM229.031 38.5585C227.511 38.5585 226.257 38.3052 225.269 37.7985C224.306 37.2919 223.597 36.6079 223.141 35.7465C222.685 34.8852 222.457 33.9352 222.457 32.8965C222.457 31.7312 222.748 30.7052 223.331 29.8185C223.939 28.9319 224.838 28.2479 226.029 27.7665C227.245 27.2599 228.778 27.0065 230.627 27.0065H235.377C235.377 26.0692 235.238 25.2965 234.959 24.6885C234.706 24.0805 234.3 23.6372 233.743 23.3585C233.211 23.0545 232.527 22.9025 231.691 22.9025C230.728 22.9025 229.892 23.1179 229.183 23.5485C228.474 23.9792 228.043 24.6632 227.891 25.6005H222.913C223.04 24.2072 223.483 23.0039 224.243 21.9905C225.028 20.9772 226.054 20.1919 227.321 19.6345C228.613 19.0772 230.082 18.7985 231.729 18.7985C233.528 18.7985 235.086 19.1025 236.403 19.7105C237.72 20.2932 238.734 21.1672 239.443 22.3325C240.152 23.4725 240.507 24.8659 240.507 26.5125V38.1025H236.251L235.719 35.1765H235.567C235.212 35.7339 234.794 36.2279 234.313 36.6585C233.857 37.0892 233.35 37.4439 232.793 37.7225C232.261 38.0012 231.678 38.2039 231.045 38.3305C230.412 38.4825 229.74 38.5585 229.031 38.5585ZM230.665 34.6065C231.349 34.6065 231.957 34.4925 232.489 34.2645C233.021 34.0112 233.464 33.6819 233.819 33.2765C234.199 32.8712 234.503 32.4025 234.731 31.8705C234.959 31.3132 235.111 30.7432 235.187 30.1605H231.235C230.45 30.1605 229.804 30.2619 229.297 30.4645C228.79 30.6419 228.423 30.9079 228.195 31.2625C227.967 31.5919 227.853 31.9845 227.853 32.4405C227.853 32.8965 227.967 33.2892 228.195 33.6185C228.448 33.9479 228.778 34.2012 229.183 34.3785C229.614 34.5305 230.108 34.6065 230.665 34.6065ZM243.581 38.1025V19.2545H248.065L248.521 22.3325H248.635C249.218 21.1672 250.016 20.2932 251.029 19.7105C252.068 19.1025 253.271 18.7985 254.639 18.7985C255.602 18.7985 256.476 18.9252 257.261 19.1785C258.047 19.4319 258.743 19.8245 259.351 20.3565C259.959 20.8885 260.466 21.5979 260.871 22.4845H260.985C261.695 21.3192 262.581 20.4199 263.645 19.7865C264.735 19.1279 266.065 18.7985 267.635 18.7985C269.13 18.7985 270.409 19.1405 271.473 19.8245C272.537 20.4832 273.348 21.4585 273.905 22.7505C274.488 24.0425 274.779 25.6385 274.779 27.5385V38.1025H269.687V27.9945C269.687 26.4239 269.383 25.2205 268.775 24.3845C268.193 23.5485 267.243 23.1305 265.925 23.1305C265.089 23.1305 264.355 23.3205 263.721 23.7005C263.113 24.0552 262.632 24.5999 262.277 25.3345C261.923 26.0692 261.745 26.9685 261.745 28.0325V38.1025H256.653V27.9945C256.653 26.4239 256.349 25.2205 255.741 24.3845C255.133 23.5485 254.171 23.1305 252.853 23.1305C252.093 23.1305 251.397 23.3459 250.763 23.7765C250.13 24.1819 249.623 24.7772 249.243 25.5625C248.889 26.3225 248.711 27.2599 248.711 28.3745V38.1025H243.581Z" fill="#E8F0B6"/>
<path d="M61.3422 38.1025L60.3905 37.7953L59.9685 39.1025H61.3422V38.1025ZM69.9302 11.5025V10.5025H69.2022L68.9785 11.1953L69.9302 11.5025ZM78.0242 11.5025L78.9762 11.1965L78.7531 10.5025H78.0242V11.5025ZM86.5742 38.1025V39.1025H87.946L87.5262 37.7965L86.5742 38.1025ZM81.1402 38.1025L80.1838 38.3948L80.4001 39.1025H81.1402V38.1025ZM74.0342 14.8465L74.9905 14.5543L74.7743 13.8465H74.0342V14.8465ZM73.9202 14.8465V13.8465H73.1835L72.9651 14.55L73.9202 14.8465ZM66.7002 38.1025V39.1025H67.4368L67.6552 38.399L66.7002 38.1025ZM65.6362 30.6545L64.6902 30.3302L64.2362 31.6545H65.6362V30.6545ZM67.0042 26.6645V25.6645H66.2899L66.0582 26.3402L67.0042 26.6645ZM80.5322 26.6645L81.4809 26.3483L81.2529 25.6645H80.5322V26.6645ZM81.8622 30.6545V31.6545H83.2496L82.8109 30.3383L81.8622 30.6545ZM61.3422 38.1025L62.2938 38.4098L70.8818 11.8098L69.9302 11.5025L68.9785 11.1953L60.3905 37.7953L61.3422 38.1025ZM69.9302 11.5025V12.5025H78.0242V11.5025V10.5025H69.9302V11.5025ZM78.0242 11.5025L77.0721 11.8085L85.6221 38.4085L86.5742 38.1025L87.5262 37.7965L78.9762 11.1965L78.0242 11.5025ZM86.5742 38.1025V37.1025H81.1402V38.1025V39.1025H86.5742V38.1025ZM81.1402 38.1025L82.0965 37.8103L74.9905 14.5543L74.0342 14.8465L73.0778 15.1388L80.1838 38.3948L81.1402 38.1025ZM74.0342 14.8465V13.8465H73.9202V14.8465V15.8465H74.0342V14.8465ZM73.9202 14.8465L72.9651 14.55L65.7451 37.806L66.7002 38.1025L67.6552 38.399L74.8752 15.143L73.9202 14.8465ZM66.7002 38.1025V37.1025H61.3422V38.1025V39.1025H66.7002V38.1025ZM65.6362 30.6545L66.5821 30.9789L67.9501 26.9889L67.0042 26.6645L66.0582 26.3402L64.6902 30.3302L65.6362 30.6545ZM67.0042 26.6645V27.6645H80.5322V26.6645V25.6645H67.0042V26.6645ZM80.5322 26.6645L79.5835 26.9808L80.9135 30.9708L81.8622 30.6545L82.8109 30.3383L81.4809 26.3483L80.5322 26.6645ZM81.8622 30.6545V29.6545H65.6362V30.6545V31.6545H81.8622V30.6545ZM88.6161 38.1025H87.6161V39.1025H88.6161V38.1025ZM88.6161 11.3885V10.3885H87.6161V11.3885H88.6161ZM93.7461 11.3885H94.7461V10.3885H93.7461V11.3885ZM93.7461 38.1025V39.1025H94.7461V38.1025H93.7461ZM88.6161 38.1025H89.6161V11.3885H88.6161H87.6161V38.1025H88.6161ZM88.6161 11.3885V12.3885H93.7461V11.3885V10.3885H88.6161V11.3885ZM93.7461 11.3885H92.7461V38.1025H93.7461H94.7461V11.3885H93.7461ZM93.7461 38.1025V37.1025H88.6161V38.1025V39.1025H93.7461V38.1025ZM98.5899 29.2485H97.5899V30.2485H98.5899V29.2485ZM98.5899 24.9545V23.9545H97.5899V24.9545H98.5899ZM114.626 24.9545H115.626V23.9545H114.626V24.9545ZM114.626 29.2485V30.2485H115.626V29.2485H114.626ZM98.5899 29.2485H99.5899V24.9545H98.5899H97.5899V29.2485H98.5899ZM98.5899 24.9545V25.9545H114.626V24.9545V23.9545H98.5899V24.9545ZM114.626 24.9545H113.626V29.2485H114.626H115.626V24.9545H114.626ZM114.626 29.2485V28.2485H98.5899V29.2485V30.2485H114.626V29.2485ZM136.176 38.1025H135.176V39.1025H136.176V38.1025ZM136.176 11.5025V10.5025H135.176V11.5025H136.176ZM141.306 11.5025H142.306V10.5025H141.306V11.5025ZM141.306 38.1025V39.1025H142.306V38.1025H141.306ZM119.418 38.1025H118.418V39.1025H119.418V38.1025ZM119.418 11.5025V10.5025H118.418V11.5025H119.418ZM124.548 11.5025H125.548V10.5025H124.548V11.5025ZM124.548 38.1025V39.1025H125.548V38.1025H124.548ZM123.826 26.5885H122.826V27.5885H123.826V26.5885ZM123.826 22.4465V21.4465H122.826V22.4465H123.826ZM137.05 22.4465H138.05V21.4465H137.05V22.4465ZM137.05 26.5885V27.5885H138.05V26.5885H137.05ZM136.176 38.1025H137.176V11.5025H136.176H135.176V38.1025H136.176ZM136.176 11.5025V12.5025H141.306V11.5025V10.5025H136.176V11.5025ZM141.306 11.5025H140.306V38.1025H141.306H142.306V11.5025H141.306ZM141.306 38.1025V37.1025H136.176V38.1025V39.1025H141.306V38.1025ZM119.418 38.1025H120.418V11.5025H119.418H118.418V38.1025H119.418ZM119.418 11.5025V12.5025H124.548V11.5025V10.5025H119.418V11.5025ZM124.548 11.5025H123.548V38.1025H124.548H125.548V11.5025H124.548ZM124.548 38.1025V37.1025H119.418V38.1025V39.1025H124.548V38.1025ZM123.826 26.5885H124.826V22.4465H123.826H122.826V26.5885H123.826ZM123.826 22.4465V23.4465H137.05V22.4465V21.4465H123.826V22.4465ZM137.05 22.4465H136.05V26.5885H137.05H138.05V22.4465H137.05ZM137.05 26.5885V25.5885H123.826V26.5885V27.5885H137.05V26.5885ZM147.191 37.7985L146.725 38.6835L146.735 38.6884L147.191 37.7985ZM145.063 35.7465L145.947 35.2787L145.947 35.2787L145.063 35.7465ZM145.253 29.8185L144.428 29.253L144.423 29.2611L144.417 29.2694L145.253 29.8185ZM147.951 27.7665L148.326 28.6937L148.336 28.6896L147.951 27.7665ZM157.299 27.0065V28.0065H158.299V27.0065H157.299ZM156.881 24.6885L155.958 25.0732L155.965 25.0893L155.972 25.1052L156.881 24.6885ZM155.665 23.3585L155.169 24.2268L155.193 24.2406L155.218 24.253L155.665 23.3585ZM149.813 25.6005V26.6005H150.664L150.8 25.7606L149.813 25.6005ZM144.835 25.6005L143.839 25.51L143.74 26.6005H144.835V25.6005ZM146.165 21.9905L145.375 21.378L145.37 21.3842L145.365 21.3905L146.165 21.9905ZM149.243 19.6345L148.847 18.7163L148.84 18.7192L149.243 19.6345ZM158.325 19.7105L157.906 20.6185L157.913 20.6218L157.92 20.6251L158.325 19.7105ZM161.365 22.3325L160.511 22.8525L160.516 22.8608L161.365 22.3325ZM162.429 38.1025V39.1025H163.429V38.1025H162.429ZM158.173 38.1025L157.189 38.2814L157.338 39.1025H158.173V38.1025ZM157.641 35.1765L158.625 34.9977L158.476 34.1765H157.641V35.1765ZM157.489 35.1765V34.1765H156.94L156.645 34.6397L157.489 35.1765ZM156.235 36.6585L155.568 35.9133L155.558 35.9223L155.548 35.9315L156.235 36.6585ZM154.715 37.7225L154.268 36.8281L154.259 36.8323L154.251 36.8367L154.715 37.7225ZM152.967 38.3305L152.771 37.35L152.752 37.3537L152.734 37.3582L152.967 38.3305ZM154.411 34.2645L154.805 35.1837L154.823 35.1759L154.841 35.1674L154.411 34.2645ZM155.741 33.2765L155.011 32.5926L155 32.6051L154.988 32.618L155.741 33.2765ZM156.653 31.8705L157.572 32.2645L157.575 32.2568L157.579 32.2492L156.653 31.8705ZM157.109 30.1605L158.101 30.2899L158.248 29.1605H157.109V30.1605ZM151.219 30.4645L151.549 31.4084L151.57 31.4012L151.59 31.393L151.219 30.4645ZM150.117 31.2625L150.939 31.8317L150.949 31.8177L150.958 31.8033L150.117 31.2625ZM150.117 33.6185L149.295 34.1877L149.309 34.2084L149.324 34.2282L150.117 33.6185ZM151.105 34.3785L150.704 35.2947L150.738 35.3094L150.772 35.3215L151.105 34.3785ZM150.953 38.5585V37.5585C149.536 37.5585 148.452 37.3213 147.647 36.9087L147.191 37.7985L146.735 38.6884C147.906 39.2891 149.33 39.5585 150.953 39.5585V38.5585ZM147.191 37.7985L147.657 36.9136C146.851 36.4894 146.298 35.9417 145.947 35.2787L145.063 35.7465L144.179 36.2144C144.74 37.274 145.606 38.0944 146.725 38.6835L147.191 37.7985ZM145.063 35.7465L145.947 35.2787C145.572 34.5709 145.379 33.7831 145.379 32.8965H144.379H143.379C143.379 34.0873 143.642 35.1995 144.179 36.2144L145.063 35.7465ZM144.379 32.8965H145.379C145.379 31.9064 145.624 31.0754 146.089 30.3677L145.253 29.8185L144.417 29.2694C143.717 30.3351 143.379 31.556 143.379 32.8965H144.379ZM145.253 29.8185L146.078 30.3841C146.554 29.6889 147.281 29.1159 148.326 28.6936L147.951 27.7665L147.576 26.8394C146.239 27.3799 145.168 28.1749 144.428 29.253L145.253 29.8185ZM147.951 27.7665L148.336 28.6896C149.391 28.2498 150.782 28.0065 152.549 28.0065V27.0065V26.0065C150.617 26.0065 148.943 26.2699 147.566 26.8435L147.951 27.7665ZM152.549 27.0065V28.0065H157.299V27.0065V26.0065H152.549V27.0065ZM157.299 27.0065H158.299C158.299 25.9793 158.148 25.0521 157.79 24.2719L156.881 24.6885L155.972 25.1052C156.172 25.541 156.299 26.1591 156.299 27.0065H157.299ZM156.881 24.6885L157.804 24.3039C157.464 23.4881 156.897 22.8566 156.112 22.4641L155.665 23.3585L155.218 24.253C155.548 24.4178 155.791 24.673 155.958 25.0732L156.881 24.6885ZM155.665 23.3585L156.161 22.4903C155.433 22.0741 154.562 21.9025 153.613 21.9025V22.9025V23.9025C154.336 23.9025 154.833 24.035 155.169 24.2268L155.665 23.3585ZM153.613 22.9025V21.9025C152.497 21.9025 151.475 22.1538 150.586 22.6938L151.105 23.5485L151.624 24.4033C152.153 24.082 152.804 23.9025 153.613 23.9025V22.9025ZM151.105 23.5485L150.586 22.6938C149.589 23.2992 149.017 24.2607 148.826 25.4405L149.813 25.6005L150.8 25.7606C150.913 25.0657 151.202 24.6592 151.624 24.4033L151.105 23.5485ZM149.813 25.6005V24.6005H144.835V25.6005V26.6005H149.813V25.6005ZM144.835 25.6005L145.831 25.6911C145.943 24.4625 146.328 23.4403 146.965 22.5905L146.165 21.9905L145.365 21.3905C144.482 22.5675 143.981 23.9519 143.839 25.51L144.835 25.6005ZM146.165 21.9905L146.955 22.6031C147.631 21.7317 148.519 21.0456 149.646 20.5499L149.243 19.6345L148.84 18.7192C147.434 19.3381 146.27 20.2227 145.375 21.378L146.165 21.9905ZM149.243 19.6345L149.639 20.5527C150.787 20.0578 152.118 19.7985 153.651 19.7985V18.7985V17.7985C151.891 17.7985 150.283 18.0966 148.847 18.7163L149.243 19.6345ZM153.651 18.7985V19.7985C155.339 19.7985 156.748 20.0839 157.906 20.6185L158.325 19.7105L158.744 18.8026C157.268 18.1212 155.561 17.7985 153.651 17.7985V18.7985ZM158.325 19.7105L157.92 20.6251C159.062 21.1301 159.914 21.8715 160.511 22.8525L161.365 22.3325L162.219 21.8126C161.398 20.4629 160.222 19.4563 158.73 18.796L158.325 19.7105ZM161.365 22.3325L160.516 22.8608C161.106 23.8098 161.429 25.0103 161.429 26.5125H162.429H163.429C163.429 24.7215 163.042 23.1352 162.214 21.8042L161.365 22.3325ZM162.429 26.5125H161.429V38.1025H162.429H163.429V26.5125H162.429ZM162.429 38.1025V37.1025H158.173V38.1025V39.1025H162.429V38.1025ZM158.173 38.1025L159.157 37.9237L158.625 34.9977L157.641 35.1765L156.657 35.3554L157.189 38.2814L158.173 38.1025ZM157.641 35.1765V34.1765H157.489V35.1765V36.1765H157.641V35.1765ZM157.489 35.1765L156.645 34.6397C156.339 35.1216 155.98 35.5451 155.568 35.9133L156.235 36.6585L156.902 37.4038C157.453 36.9107 157.93 36.3462 158.333 35.7134L157.489 35.1765ZM156.235 36.6585L155.548 35.9315C155.163 36.2954 154.737 36.5935 154.268 36.8281L154.715 37.7225L155.162 38.617C155.808 38.2942 156.395 37.883 156.922 37.3856L156.235 36.6585ZM154.715 37.7225L154.251 36.8367C153.809 37.068 153.318 37.2406 152.771 37.35L152.967 38.3305L153.163 39.3111C153.883 39.1672 154.557 38.9344 155.179 38.6084L154.715 37.7225ZM152.967 38.3305L152.734 37.3582C152.183 37.4903 151.591 37.5585 150.953 37.5585V38.5585V39.5585C151.734 39.5585 152.484 39.4748 153.2 39.3029L152.967 38.3305ZM152.587 34.6065V35.6065C153.382 35.6065 154.128 35.4738 154.805 35.1837L154.411 34.2645L154.017 33.3454C153.63 33.5113 153.16 33.6065 152.587 33.6065V34.6065ZM154.411 34.2645L154.841 35.1674C155.484 34.861 156.041 34.4523 156.494 33.935L155.741 33.2765L154.988 32.618C154.732 32.9115 154.402 33.1614 153.981 33.3617L154.411 34.2645ZM155.741 33.2765L156.471 33.9605C156.933 33.4667 157.3 32.8989 157.572 32.2645L156.653 31.8705L155.734 31.4766C155.55 31.9062 155.309 32.2757 155.011 32.5926L155.741 33.2765ZM156.653 31.8705L157.579 32.2492C157.838 31.6139 158.013 30.9603 158.101 30.2899L157.109 30.1605L156.117 30.0312C156.053 30.5262 155.924 31.0125 155.727 31.4919L156.653 31.8705ZM157.109 30.1605V29.1605H153.157V30.1605V31.1605H157.109V30.1605ZM153.157 30.1605V29.1605C152.296 29.1605 151.512 29.2702 150.848 29.5361L151.219 30.4645L151.59 31.393C151.939 31.2535 152.448 31.1605 153.157 31.1605V30.1605ZM151.219 30.4645L150.889 29.5207C150.23 29.7513 149.654 30.1335 149.276 30.7218L150.117 31.2625L150.958 31.8033C151.036 31.6822 151.195 31.5325 151.549 31.4084L151.219 30.4645ZM150.117 31.2625L149.295 30.6933C148.935 31.2124 148.775 31.8103 148.775 32.4405H149.775H150.775C150.775 32.1588 150.843 31.9714 150.939 31.8317L150.117 31.2625ZM149.775 32.4405H148.775C148.775 33.0708 148.935 33.6687 149.295 34.1877L150.117 33.6185L150.939 33.0493C150.843 32.9097 150.775 32.7223 150.775 32.4405H149.775ZM150.117 33.6185L149.324 34.2282C149.687 34.6998 150.155 35.0544 150.704 35.2947L151.105 34.3785L151.506 33.4624C151.244 33.348 151.054 33.196 150.91 33.0088L150.117 33.6185ZM151.105 34.3785L150.772 35.3215C151.33 35.5185 151.94 35.6065 152.587 35.6065V34.6065V33.6065C152.119 33.6065 151.741 33.5425 151.438 33.4355L151.105 34.3785ZM167.875 45.7785L166.962 45.3714L166.335 46.7785H167.875V45.7785ZM172.245 35.9745L173.159 36.3817L173.786 34.9745H172.245V35.9745ZM171.181 35.9745L170.273 36.3935L170.541 36.9745H171.181V35.9745ZM163.467 19.2545V18.2545H161.905L162.559 19.6735L163.467 19.2545ZM169.015 19.2545L169.928 18.8463L169.663 18.2545H169.015V19.2545ZM174.487 31.4905L173.574 31.8988L173.839 32.4905H174.487V31.4905ZM174.601 31.4905V32.4905H175.278L175.529 31.8624L174.601 31.4905ZM179.503 19.2545V18.2545H178.827L178.575 18.8827L179.503 19.2545ZM184.975 19.2545L185.891 19.656L186.505 18.2545H184.975V19.2545ZM173.347 45.7785V46.7785H174.001L174.263 46.18L173.347 45.7785ZM167.875 45.7785L168.789 46.1857L173.159 36.3817L172.245 35.9745L171.332 35.5674L166.962 45.3714L167.875 45.7785ZM172.245 35.9745V34.9745H171.181V35.9745V36.9745H172.245V35.9745ZM171.181 35.9745L172.089 35.5556L164.375 18.8356L163.467 19.2545L162.559 19.6735L170.273 36.3935L171.181 35.9745ZM163.467 19.2545V20.2545H169.015V19.2545V18.2545H163.467V19.2545ZM169.015 19.2545L168.102 19.6628L173.574 31.8988L174.487 31.4905L175.4 31.0823L169.928 18.8463L169.015 19.2545ZM174.487 31.4905V32.4905H174.601V31.4905V30.4905H174.487V31.4905ZM174.601 31.4905L175.529 31.8624L180.431 19.6264L179.503 19.2545L178.575 18.8827L173.673 31.1187L174.601 31.4905ZM179.503 19.2545V20.2545H184.975V19.2545V18.2545H179.503V19.2545ZM184.975 19.2545L184.059 18.853L172.431 45.377L173.347 45.7785L174.263 46.18L185.891 19.656L184.975 19.2545ZM173.347 45.7785V44.7785H167.875V45.7785V46.7785H173.347V45.7785ZM191.895 37.4945L191.495 38.4112L191.509 38.4173L191.524 38.423L191.895 37.4945ZM189.577 35.4045L188.706 35.8959L188.712 35.9056L189.577 35.4045ZM188.741 23.3965H189.741V22.3965H188.741V23.3965ZM185.511 23.3965H184.511V24.3965H185.511V23.3965ZM185.511 19.2545V18.2545H184.511V19.2545H185.511ZM188.741 19.2545V20.2545H189.636L189.735 19.365L188.741 19.2545ZM189.311 14.1245V13.1245H188.416L188.317 14.0141L189.311 14.1245ZM193.871 14.1245H194.871V13.1245H193.871V14.1245ZM193.871 19.2545H192.871V20.2545H193.871V19.2545ZM198.887 19.2545H199.887V18.2545H198.887V19.2545ZM198.887 23.3965V24.3965H199.887V23.3965H198.887ZM193.871 23.3965V22.3965H192.871V23.3965H193.871ZM194.441 33.3145L193.759 34.0456L194.441 33.3145ZM198.773 33.8465H199.773V32.8465H198.773V33.8465ZM198.773 38.1025V39.1025H199.773V38.1025H198.773ZM195.429 38.1025V37.1025C194.185 37.1025 193.138 36.9146 192.266 36.5661L191.895 37.4945L191.524 38.423C192.679 38.8851 193.988 39.1025 195.429 39.1025V38.1025ZM191.895 37.4945L192.295 36.5778C191.509 36.2354 190.897 35.6878 190.442 34.9035L189.577 35.4045L188.712 35.9056C189.372 37.0466 190.305 37.8924 191.495 38.4112L191.895 37.4945ZM189.577 35.4045L190.448 34.9132C190.007 34.1315 189.741 32.9807 189.741 31.3765H188.741H187.741C187.741 33.167 188.032 34.7015 188.706 35.8959L189.577 35.4045ZM188.741 31.3765H189.741V23.3965H188.741H187.741V31.3765H188.741ZM188.741 23.3965V22.3965H185.511V23.3965V24.3965H188.741V23.3965ZM185.511 23.3965H186.511V19.2545H185.511H184.511V23.3965H185.511ZM185.511 19.2545V20.2545H188.741V19.2545V18.2545H185.511V19.2545ZM188.741 19.2545L189.735 19.365L190.305 14.235L189.311 14.1245L188.317 14.0141L187.747 19.1441L188.741 19.2545ZM189.311 14.1245V15.1245H193.871V14.1245V13.1245H189.311V14.1245ZM193.871 14.1245H192.871V19.2545H193.871H194.871V14.1245H193.871ZM193.871 19.2545V20.2545H198.887V19.2545V18.2545H193.871V19.2545ZM198.887 19.2545H197.887V23.3965H198.887H199.887V19.2545H198.887ZM198.887 23.3965V22.3965H193.871V23.3965V24.3965H198.887V23.3965ZM193.871 23.3965H192.871V31.4525H193.871H194.871V23.3965H193.871ZM193.871 31.4525H192.871C192.871 32.4314 193.072 33.4046 193.759 34.0456L194.441 33.3145L195.123 32.5835C195.05 32.5151 194.871 32.2471 194.871 31.4525H193.871ZM194.441 33.3145L193.759 34.0456C194.421 34.6637 195.389 34.8465 196.379 34.8465V33.8465V32.8465C195.545 32.8465 195.221 32.6747 195.123 32.5835L194.441 33.3145ZM196.379 33.8465V34.8465H198.773V33.8465V32.8465H196.379V33.8465ZM198.773 33.8465H197.773V38.1025H198.773H199.773V33.8465H198.773ZM198.773 38.1025V37.1025H195.429V38.1025V39.1025H198.773V38.1025ZM201.057 38.1025H200.057V39.1025H201.057V38.1025ZM201.057 11.3885V10.3885H200.057V11.3885H201.057ZM206.111 11.3885H207.111V10.3885H206.111V11.3885ZM206.111 22.3705H205.111V23.3705H206.111V22.3705ZM206.263 22.3705V23.3705H206.847L207.134 22.8626L206.263 22.3705ZM208.847 19.7105L208.351 18.8423L208.351 18.8423L208.847 19.7105ZM216.485 19.8245L215.945 20.6657L215.952 20.6703L215.959 20.6748L216.485 19.8245ZM218.917 22.7505L217.999 23.1466L217.999 23.1466L218.917 22.7505ZM219.753 38.1025V39.1025H220.753V38.1025H219.753ZM214.661 38.1025H213.661V39.1025H214.661V38.1025ZM213.711 24.3845L212.903 24.9727L212.908 24.9806L212.914 24.9884L213.711 24.3845ZM208.391 23.7765L208.901 24.6369L208.91 24.6313L208.391 23.7765ZM206.757 25.5625L205.869 25.1039L205.863 25.1153L206.757 25.5625ZM206.187 38.1025V39.1025H207.187V38.1025H206.187ZM201.057 38.1025H202.057V11.3885H201.057H200.057V38.1025H201.057ZM201.057 11.3885V12.3885H206.111V11.3885V10.3885H201.057V11.3885ZM206.111 11.3885H205.111V22.3705H206.111H207.111V11.3885H206.111ZM206.111 22.3705V23.3705H206.263V22.3705V21.3705H206.111V22.3705ZM206.263 22.3705L207.134 22.8626C207.713 21.8392 208.45 21.0893 209.344 20.5788L208.847 19.7105L208.351 18.8423C207.117 19.5478 206.132 20.5713 205.393 21.8785L206.263 22.3705ZM208.847 19.7105L209.344 20.5788C210.232 20.0714 211.308 19.7985 212.609 19.7985V18.7985V17.7985C211.023 17.7985 209.591 18.1337 208.351 18.8423L208.847 19.7105ZM212.609 18.7985V19.7985C213.977 19.7985 215.072 20.1047 215.945 20.6657L216.485 19.8245L217.026 18.9834C215.771 18.1764 214.282 17.7985 212.609 17.7985V18.7985ZM216.485 19.8245L215.959 20.6748C216.828 21.2126 217.513 22.0182 217.999 23.1466L218.917 22.7505L219.836 22.3544C219.208 20.8988 218.271 19.7538 217.012 18.9743L216.485 19.8245ZM218.917 22.7505L217.999 23.1466C218.487 24.278 218.753 25.7298 218.753 27.5385H219.753H220.753C220.753 25.5473 220.462 23.8071 219.836 22.3544L218.917 22.7505ZM219.753 27.5385H218.753V38.1025H219.753H220.753V27.5385H219.753ZM219.753 38.1025V37.1025H214.661V38.1025V39.1025H219.753V38.1025ZM214.661 38.1025H215.661V27.9945H214.661H213.661V38.1025H214.661ZM214.661 27.9945H215.661C215.661 26.3091 215.325 24.8579 214.509 23.7807L213.711 24.3845L212.914 24.9884C213.365 25.5832 213.661 26.5386 213.661 27.9945H214.661ZM213.711 24.3845L214.52 23.7964C213.666 22.622 212.322 22.1305 210.747 22.1305V23.1305V24.1305C211.909 24.1305 212.541 24.4751 212.903 24.9727L213.711 24.3845ZM210.747 23.1305V22.1305C209.71 22.1305 208.744 22.3924 207.873 22.9218L208.391 23.7765L208.91 24.6313C209.457 24.2994 210.062 24.1305 210.747 24.1305V23.1305ZM208.391 23.7765L207.882 22.9162C207.019 23.4277 206.35 24.171 205.869 25.1039L206.757 25.5625L207.646 26.0212C207.975 25.3834 208.396 24.936 208.901 24.6368L208.391 23.7765ZM206.757 25.5625L205.863 25.1153C205.395 26.0505 205.187 27.1512 205.187 28.3745H206.187H207.187C207.187 27.3686 207.36 26.5945 207.652 26.0098L206.757 25.5625ZM206.187 28.3745H205.187V38.1025H206.187H207.187V28.3745H206.187ZM206.187 38.1025V37.1025H201.057V38.1025V39.1025H206.187V38.1025ZM225.269 37.7985L224.803 38.6835L224.813 38.6884L225.269 37.7985ZM223.141 35.7465L224.025 35.2787L224.025 35.2787L223.141 35.7465ZM223.331 29.8185L222.506 29.253L222.501 29.2611L222.495 29.2694L223.331 29.8185ZM226.029 27.7665L226.404 28.6937L226.414 28.6896L226.029 27.7665ZM235.377 27.0065V28.0065H236.377V27.0065H235.377ZM234.959 24.6885L234.036 25.0732L234.043 25.0893L234.05 25.1052L234.959 24.6885ZM233.743 23.3585L233.247 24.2268L233.271 24.2406L233.296 24.253L233.743 23.3585ZM227.891 25.6005V26.6005H228.742L228.878 25.7606L227.891 25.6005ZM222.913 25.6005L221.917 25.51L221.818 26.6005H222.913V25.6005ZM224.243 21.9905L223.453 21.378L223.448 21.3842L223.443 21.3905L224.243 21.9905ZM227.321 19.6345L226.925 18.7163L226.918 18.7192L227.321 19.6345ZM236.403 19.7105L235.984 20.6185L235.991 20.6218L235.999 20.6251L236.403 19.7105ZM239.443 22.3325L238.589 22.8525L238.594 22.8608L239.443 22.3325ZM240.507 38.1025V39.1025H241.507V38.1025H240.507ZM236.251 38.1025L235.267 38.2814L235.417 39.1025H236.251V38.1025ZM235.719 35.1765L236.703 34.9977L236.554 34.1765H235.719V35.1765ZM235.567 35.1765V34.1765H235.018L234.723 34.6397L235.567 35.1765ZM234.313 36.6585L233.646 35.9133L233.636 35.9223L233.627 35.9315L234.313 36.6585ZM232.793 37.7225L232.346 36.8281L232.337 36.8323L232.329 36.8367L232.793 37.7225ZM231.045 38.3305L230.849 37.35L230.83 37.3537L230.812 37.3582L231.045 38.3305ZM232.489 34.2645L232.883 35.1837L232.901 35.1759L232.919 35.1674L232.489 34.2645ZM233.819 33.2765L233.09 32.5926L233.078 32.6051L233.067 32.618L233.819 33.2765ZM234.731 31.8705L235.65 32.2645L235.654 32.2568L235.657 32.2492L234.731 31.8705ZM235.187 30.1605L236.179 30.2899L236.326 29.1605H235.187V30.1605ZM229.297 30.4645L229.627 31.4084L229.648 31.4012L229.669 31.393L229.297 30.4645ZM228.195 31.2625L229.017 31.8317L229.027 31.8177L229.036 31.8033L228.195 31.2625ZM228.195 33.6185L227.373 34.1877L227.387 34.2084L227.403 34.2282L228.195 33.6185ZM229.183 34.3785L228.782 35.2947L228.816 35.3094L228.85 35.3215L229.183 34.3785ZM229.031 38.5585V37.5585C227.614 37.5585 226.53 37.3213 225.725 36.9087L225.269 37.7985L224.813 38.6884C225.984 39.2891 227.408 39.5585 229.031 39.5585V38.5585ZM225.269 37.7985L225.735 36.9136C224.929 36.4894 224.376 35.9417 224.025 35.2787L223.141 35.7465L222.257 36.2144C222.818 37.274 223.684 38.0944 224.803 38.6835L225.269 37.7985ZM223.141 35.7465L224.025 35.2787C223.65 34.5709 223.457 33.7831 223.457 32.8965H222.457H221.457C221.457 34.0873 221.72 35.1995 222.257 36.2144L223.141 35.7465ZM222.457 32.8965H223.457C223.457 31.9064 223.702 31.0754 224.167 30.3677L223.331 29.8185L222.495 29.2694C221.795 30.3351 221.457 31.556 221.457 32.8965H222.457ZM223.331 29.8185L224.156 30.3841C224.633 29.6889 225.359 29.1159 226.404 28.6936L226.029 27.7665L225.654 26.8394C224.317 27.3799 223.246 28.1749 222.506 29.253L223.331 29.8185ZM226.029 27.7665L226.414 28.6896C227.469 28.2498 228.86 28.0065 230.627 28.0065V27.0065V26.0065C228.695 26.0065 227.021 26.2699 225.645 26.8435L226.029 27.7665ZM230.627 27.0065V28.0065H235.377V27.0065V26.0065H230.627V27.0065ZM235.377 27.0065H236.377C236.377 25.9793 236.226 25.0521 235.868 24.2719L234.959 24.6885L234.05 25.1052C234.25 25.541 234.377 26.1591 234.377 27.0065H235.377ZM234.959 24.6885L235.882 24.3039C235.542 23.4881 234.975 22.8566 234.19 22.4641L233.743 23.3585L233.296 24.253C233.626 24.4178 233.869 24.673 234.036 25.0732L234.959 24.6885ZM233.743 23.3585L234.239 22.4903C233.511 22.0741 232.64 21.9025 231.691 21.9025V22.9025V23.9025C232.414 23.9025 232.911 24.035 233.247 24.2268L233.743 23.3585ZM231.691 22.9025V21.9025C230.575 21.9025 229.554 22.1538 228.664 22.6938L229.183 23.5485L229.702 24.4033C230.231 24.082 230.882 23.9025 231.691 23.9025V22.9025ZM229.183 23.5485L228.664 22.6938C227.667 23.2992 227.095 24.2607 226.904 25.4405L227.891 25.6005L228.878 25.7606C228.991 25.0657 229.281 24.6592 229.702 24.4033L229.183 23.5485ZM227.891 25.6005V24.6005H222.913V25.6005V26.6005H227.891V25.6005ZM222.913 25.6005L223.909 25.6911C224.021 24.4625 224.406 23.4403 225.043 22.5905L224.243 21.9905L223.443 21.3905C222.56 22.5675 222.059 23.9519 221.917 25.51L222.913 25.6005ZM224.243 21.9905L225.034 22.6031C225.709 21.7317 226.597 21.0456 227.724 20.5499L227.321 19.6345L226.918 18.7192C225.512 19.3381 224.348 20.2227 223.453 21.378L224.243 21.9905ZM227.321 19.6345L227.717 20.5527C228.865 20.0578 230.196 19.7985 231.729 19.7985V18.7985V17.7985C229.969 17.7985 228.362 18.0966 226.925 18.7163L227.321 19.6345ZM231.729 18.7985V19.7985C233.417 19.7985 234.826 20.0839 235.984 20.6185L236.403 19.7105L236.822 18.8026C235.346 18.1212 233.639 17.7985 231.729 17.7985V18.7985ZM236.403 19.7105L235.999 20.6251C237.14 21.1301 237.992 21.8715 238.589 22.8525L239.443 22.3325L240.297 21.8126C239.476 20.4629 238.301 19.4563 236.808 18.796L236.403 19.7105ZM239.443 22.3325L238.594 22.8608C239.185 23.8098 239.507 25.0103 239.507 26.5125H240.507H241.507C241.507 24.7215 241.12 23.1352 240.292 21.8042L239.443 22.3325ZM240.507 26.5125H239.507V38.1025H240.507H241.507V26.5125H240.507ZM240.507 38.1025V37.1025H236.251V38.1025V39.1025H240.507V38.1025ZM236.251 38.1025L237.235 37.9237L236.703 34.9977L235.719 35.1765L234.735 35.3554L235.267 38.2814L236.251 38.1025ZM235.719 35.1765V34.1765H235.567V35.1765V36.1765H235.719V35.1765ZM235.567 35.1765L234.723 34.6397C234.417 35.1216 234.058 35.5451 233.646 35.9133L234.313 36.6585L234.98 37.4038C235.531 36.9107 236.008 36.3462 236.411 35.7134L235.567 35.1765ZM234.313 36.6585L233.627 35.9315C233.241 36.2954 232.815 36.5935 232.346 36.8281L232.793 37.7225L233.24 38.617C233.886 38.2942 234.473 37.883 235 37.3856L234.313 36.6585ZM232.793 37.7225L232.329 36.8367C231.888 37.068 231.396 37.2406 230.849 37.35L231.045 38.3305L231.241 39.3111C231.961 39.1672 232.635 38.9344 233.257 38.6084L232.793 37.7225ZM231.045 38.3305L230.812 37.3582C230.261 37.4903 229.669 37.5585 229.031 37.5585V38.5585V39.5585C229.812 39.5585 230.562 39.4748 231.278 39.3029L231.045 38.3305ZM230.665 34.6065V35.6065C231.46 35.6065 232.206 35.4738 232.883 35.1837L232.489 34.2645L232.095 33.3454C231.708 33.5113 231.238 33.6065 230.665 33.6065V34.6065ZM232.489 34.2645L232.919 35.1674C233.562 34.861 234.119 34.4523 234.572 33.935L233.819 33.2765L233.067 32.618C232.81 32.9115 232.48 33.1614 232.059 33.3617L232.489 34.2645ZM233.819 33.2765L234.549 33.9605C235.012 33.4667 235.378 32.8989 235.65 32.2645L234.731 31.8705L233.812 31.4766C233.628 31.9062 233.387 32.2757 233.09 32.5926L233.819 33.2765ZM234.731 31.8705L235.657 32.2492C235.917 31.6139 236.091 30.9603 236.179 30.2899L235.187 30.1605L234.196 30.0312C234.131 30.5262 234.002 31.0125 233.806 31.4919L234.731 31.8705ZM235.187 30.1605V29.1605H231.235V30.1605V31.1605H235.187V30.1605ZM231.235 30.1605V29.1605C230.374 29.1605 229.59 29.2702 228.926 29.5361L229.297 30.4645L229.669 31.393C230.017 31.2535 230.526 31.1605 231.235 31.1605V30.1605ZM229.297 30.4645L228.967 29.5207C228.308 29.7513 227.732 30.1335 227.354 30.7218L228.195 31.2625L229.036 31.8033C229.114 31.6822 229.273 31.5325 229.627 31.4084L229.297 30.4645ZM228.195 31.2625L227.373 30.6933C227.014 31.2124 226.853 31.8103 226.853 32.4405H227.853H228.853C228.853 32.1588 228.921 31.9714 229.017 31.8317L228.195 31.2625ZM227.853 32.4405H226.853C226.853 33.0708 227.014 33.6687 227.373 34.1877L228.195 33.6185L229.017 33.0493C228.921 32.9097 228.853 32.7223 228.853 32.4405H227.853ZM228.195 33.6185L227.403 34.2282C227.765 34.6998 228.233 35.0544 228.782 35.2947L229.183 34.3785L229.584 33.4624C229.323 33.348 229.132 33.196 228.988 33.0088L228.195 33.6185ZM229.183 34.3785L228.85 35.3215C229.408 35.5185 230.019 35.6065 230.665 35.6065V34.6065V33.6065C230.197 33.6065 229.819 33.5425 229.516 33.4355L229.183 34.3785ZM243.581 38.1025H242.581V39.1025H243.581V38.1025ZM243.581 19.2545V18.2545H242.581V19.2545H243.581ZM248.065 19.2545L249.054 19.108L248.928 18.2545H248.065V19.2545ZM248.521 22.3325L247.532 22.4791L247.658 23.3325H248.521V22.3325ZM248.635 22.3325V23.3325H249.253L249.53 22.7798L248.635 22.3325ZM251.029 19.7105L251.528 20.5775L251.534 20.5736L251.029 19.7105ZM257.261 19.1785L257.568 18.2268L257.568 18.2268L257.261 19.1785ZM259.351 20.3565L258.693 21.1091L258.693 21.1091L259.351 20.3565ZM260.871 22.4845L259.962 22.9003L260.229 23.4845H260.871V22.4845ZM260.985 22.4845V23.4845H261.547L261.839 23.0045L260.985 22.4845ZM263.645 19.7865L264.157 20.6459L264.163 20.6423L263.645 19.7865ZM271.473 19.8245L270.933 20.6657L270.94 20.6703L270.947 20.6748L271.473 19.8245ZM273.905 22.7505L272.987 23.1466L272.99 23.1542L272.994 23.1616L273.905 22.7505ZM274.779 38.1025V39.1025H275.779V38.1025H274.779ZM269.687 38.1025H268.687V39.1025H269.687V38.1025ZM268.775 24.3845L267.955 24.9563L267.961 24.9646L267.967 24.9727L268.775 24.3845ZM263.721 23.7005L264.225 24.5644L264.236 24.558L263.721 23.7005ZM262.277 25.3345L261.377 24.8998L261.377 24.8998L262.277 25.3345ZM261.745 38.1025V39.1025H262.745V38.1025H261.745ZM256.653 38.1025H255.653V39.1025H256.653V38.1025ZM255.741 24.3845L254.933 24.9727L254.933 24.9727L255.741 24.3845ZM250.763 23.7765L251.302 24.6188L251.314 24.6113L251.326 24.6035L250.763 23.7765ZM249.243 25.5625L248.343 25.1269L248.337 25.1397L249.243 25.5625ZM248.711 38.1025V39.1025H249.711V38.1025H248.711ZM243.581 38.1025H244.581V19.2545H243.581H242.581V38.1025H243.581ZM243.581 19.2545V20.2545H248.065V19.2545V18.2545H243.581V19.2545ZM248.065 19.2545L247.076 19.4011L247.532 22.4791L248.521 22.3325L249.51 22.186L249.054 19.108L248.065 19.2545ZM248.521 22.3325V23.3325H248.635V22.3325V21.3325H248.521V22.3325ZM248.635 22.3325L249.53 22.7798C250.035 21.7693 250.704 21.0511 251.528 20.5774L251.029 19.7105L250.531 18.8436C249.328 19.5353 248.401 20.5651 247.741 21.8853L248.635 22.3325ZM251.029 19.7105L251.534 20.5736C252.4 20.067 253.424 19.7985 254.639 19.7985V18.7985V17.7985C253.118 17.7985 251.736 18.1381 250.524 18.8475L251.029 19.7105ZM254.639 18.7985V19.7985C255.515 19.7985 256.283 19.9137 256.954 20.1302L257.261 19.1785L257.568 18.2268C256.669 17.9367 255.689 17.7985 254.639 17.7985V18.7985ZM257.261 19.1785L256.954 20.1302C257.613 20.3427 258.189 20.6687 258.693 21.1091L259.351 20.3565L260.01 19.604C259.297 18.9804 258.48 18.521 257.568 18.2268L257.261 19.1785ZM259.351 20.3565L258.693 21.1091C259.175 21.5307 259.603 22.1163 259.962 22.9003L260.871 22.4845L261.781 22.0688C261.328 21.0795 260.744 20.2464 260.01 19.604L259.351 20.3565ZM260.871 22.4845V23.4845H260.985V22.4845V21.4845H260.871V22.4845ZM260.985 22.4845L261.839 23.0045C262.473 21.9641 263.247 21.1875 264.157 20.6458L263.645 19.7865L263.134 18.9272C261.916 19.6523 260.916 20.6743 260.131 21.9646L260.985 22.4845ZM263.645 19.7865L264.163 20.6423C265.063 20.0978 266.205 19.7985 267.635 19.7985V18.7985V17.7985C265.925 17.7985 264.406 18.158 263.128 18.9308L263.645 19.7865ZM267.635 18.7985V19.7985C268.974 19.7985 270.057 20.103 270.933 20.6657L271.473 19.8245L272.014 18.9834C270.761 18.1781 269.286 17.7985 267.635 17.7985V18.7985ZM271.473 19.8245L270.947 20.6748C271.816 21.2126 272.5 22.0182 272.987 23.1466L273.905 22.7505L274.823 22.3544C274.196 20.8988 273.259 19.7538 272 18.9743L271.473 19.8245ZM273.905 22.7505L272.994 23.1616C273.502 24.2884 273.779 25.7345 273.779 27.5385H274.779H275.779C275.779 25.5425 275.474 23.7967 274.817 22.3394L273.905 22.7505ZM274.779 27.5385H273.779V38.1025H274.779H275.779V27.5385H274.779ZM274.779 38.1025V37.1025H269.687V38.1025V39.1025H274.779V38.1025ZM269.687 38.1025H270.687V27.9945H269.687H268.687V38.1025H269.687ZM269.687 27.9945H270.687C270.687 26.316 270.366 24.8713 269.584 23.7964L268.775 24.3845L267.967 24.9727C268.401 25.5697 268.687 26.5318 268.687 27.9945H269.687ZM268.775 24.3845L269.596 23.8127C268.772 22.6316 267.463 22.1305 265.925 22.1305V23.1305V24.1305C267.022 24.1305 267.613 24.4654 267.955 24.9563L268.775 24.3845ZM265.925 23.1305V22.1305C264.932 22.1305 264.015 22.358 263.207 22.843L263.721 23.7005L264.236 24.558C264.694 24.2831 265.246 24.1305 265.925 24.1305V23.1305ZM263.721 23.7005L263.217 22.8368C262.411 23.307 261.804 24.0151 261.377 24.8998L262.277 25.3345L263.178 25.7693C263.46 25.1847 263.815 24.8034 264.225 24.5643L263.721 23.7005ZM262.277 25.3345L261.377 24.8998C260.94 25.8048 260.745 26.862 260.745 28.0325H261.745H262.745C262.745 27.0751 262.905 26.3336 263.178 25.7693L262.277 25.3345ZM261.745 28.0325H260.745V38.1025H261.745H262.745V28.0325H261.745ZM261.745 38.1025V37.1025H256.653V38.1025V39.1025H261.745V38.1025ZM256.653 38.1025H257.653V27.9945H256.653H255.653V38.1025H256.653ZM256.653 27.9945H257.653C257.653 26.316 257.332 24.8713 256.55 23.7964L255.741 24.3845L254.933 24.9727C255.367 25.5697 255.653 26.5318 255.653 27.9945H256.653ZM255.741 24.3845L256.55 23.7964C255.703 22.6319 254.393 22.1305 252.853 22.1305V23.1305V24.1305C253.948 24.1305 254.563 24.4652 254.933 24.9727L255.741 24.3845ZM252.853 23.1305V22.1305C251.891 22.1305 250.999 22.4071 250.201 22.9496L250.763 23.7765L251.326 24.6035C251.794 24.2846 252.295 24.1305 252.853 24.1305V23.1305ZM250.763 23.7765L250.224 22.9343C249.412 23.4543 248.79 24.2024 248.343 25.127L249.243 25.5625L250.143 25.9981C250.456 25.352 250.848 24.9095 251.302 24.6188L250.763 23.7765ZM249.243 25.5625L248.337 25.1397C247.904 26.0681 247.711 27.1596 247.711 28.3745H248.711H249.711C249.711 27.3602 249.873 26.577 250.149 25.9854L249.243 25.5625ZM248.711 28.3745H247.711V38.1025H248.711H249.711V28.3745H248.711ZM248.711 38.1025V37.1025H243.581V38.1025V39.1025H248.711V38.1025Z" fill="#E8F0B6" mask="url(#path-1-outside-1_1221_43385)"/>
<path d="M0.923828 21.0569C0.923828 9.63621 10.1821 0.37793 21.6028 0.37793V28.9434C21.6028 40.364 12.3445 49.6223 0.923828 49.6223V21.0569Z" fill="#4A3AFF"/>
<path d="M24.6025 11.6147C24.6025 5.40881 29.6334 0.37793 35.8393 0.37793C42.0452 0.37793 47.0761 5.4088 47.0761 11.6147V12.2635C47.0761 18.4694 42.0452 23.5002 35.8393 23.5002C29.6334 23.5002 24.6025 18.4694 24.6025 12.2635V11.6147Z" fill="#4CBFFF"/>
<path d="M24.6025 37.7368C24.6025 31.5309 29.6334 26.5 35.8393 26.5C42.0452 26.5 47.0761 31.5309 47.0761 37.7368V38.3855C47.0761 44.5914 42.0452 49.6223 35.8393 49.6223C29.6334 49.6223 24.6025 44.5914 24.6025 38.3855V37.7368Z" fill="#9E97FF"/>
</svg>
